# xmcd CD database file
#
# Track frame offsets:
#	150
#	36888
#	82293
#	101014
#	138891
#	182404
#	213110
#	239578
#	270025
#
# Disc length: 3708 seconds
#
# Revision: 0
# Processed by: cddbd v1.5.2PL0 Copyright (c) Steve Scherf et al.
# Submitted via: CDex 1.51
#
DISCID=720e7a09
DTITLE=Mário Franco Quintet and David Binney - This Life.
DYEAR=2006
DGENRE=Jazz
TTITLE0=This Life
TTITLE1=Herança
TTITLE2=Errante
TTITLE3=Tentativa
TTITLE4=Eterno Imperfeito
TTITLE5=Backstage Home
TTITLE6=Web Woman
TTITLE7=Chegada
TTITLE8=Web Woman 2
EXTD=YEAR: 2006
EXTT0=
EXTT1=
EXTT2=
EXTT3=
EXTT4=
EXTT5=
EXTT6=
EXTT7=
EXTT8=
PLAYORDER=
